# xmcd
#
# Track frame offsets: 
#        150
#        16800
#        31423
#        43768
#        55420
#        69260
#        81303
#        92473
#        111453
#        121138
#        133435
#        147118
#        159010
#        170565
#        184355
#        197810
#        208130
#        220028
#        231823
#        245750
#        258195
#        271070
#        283235
#        295605
#        309688
#
# Disc length: 4286 seconds
#
# Revision: 0
# Processed by: cddbd v1.5.2PL0 Copyright (c) Steve Scherf et al.
# Submitted via: ExactAudioCopy v1.0b3
#
DISCID=7610bc19
DTITLE=Various Artist - Rhythm and Blues [Disc 2]
DYEAR=1994
DGENRE=R&B
TTITLE0=Ray Charles - Georgia On My Mind
TTITLE1=Sam Cooke - A Change Is Gonna Come
TTITLE2=Diana Ross and The Supremes - You Keep Me Hangin' On
TTITLE3=Wilson Pickett - Funky Broadway
TTITLE4=Dionne Warwick - I Say A Little Prayer
TTITLE5=Otis Redding - The Happy Song
TTITLE6=James Brown - I Got You
TTITLE7=Ray Charles - I Can't Stop Loving You
TTITLE8=Sam Cooke - Wonderful World
TTITLE9=Otis Redding - The Dock Of The Bay
TTITLE10=Ben E. King - Stand By Me
TTITLE11=Stevie Wonder - I Was Made To Love Her
TTITLE12=Rufus Thomas - Walking The Dog
TTITLE13=Otis Redding and Carla Thomas - Tramp
TTITLE14=King Curtis - Memphis Soul Stew
TTITLE15=The Mar-Keys - Philly Dog
TTITLE16=The Drifters - Up On The Roof
TTITLE17=Wilson Pickett - In The Midnight Hour
TTITLE18=Otis Redding - Amen
TTITLE19=Bobbie Hebb - Sunny
TTITLE20=Stevie Wonder - A Place In The Sun
TTITLE21=The Drifters - Under The Boardwalk
TTITLE22=James Brown - It's A Man's Man's World
TTITLE23=Wilson Pickett - Mustang Sally
TTITLE24=The Platters - Only You
EXTD=
EXTT0=
EXTT1=
EXTT2=
EXTT3=
EXTT4=
EXTT5=
EXTT6=
EXTT7=
EXTT8=
EXTT9=
EXTT10=
EXTT11=
EXTT12=
EXTT13=
EXTT14=
EXTT15=
EXTT16=
EXTT17=
EXTT18=
EXTT19=
EXTT20=
EXTT21=
EXTT22=
EXTT23=
EXTT24=
PLAYORDER=
